<svg xmlns="http://www.w3.org/2000/svg" width="18.402" height="16.723" viewBox="0 0 18.402 16.723">
  <path id="coeur_creux" d="M15.383,5.715a3.178,3.178,0,0,1,2.342,1,3.22,3.22,0,0,1,1,2.342A5.072,5.072,0,0,1,17.1,12.155l-5.9,6.273L5.3,12.155A5.072,5.072,0,0,1,3.673,9.06a3.22,3.22,0,0,1,1-2.342,3.178,3.178,0,0,1,2.342-1A3.651,3.651,0,0,1,9.737,7.6l1.087,1.84a.46.46,0,0,0,.753,0L12.665,7.6a3.651,3.651,0,0,1,2.718-1.882m0-1.715A5.406,5.406,0,0,0,11.2,6.718,5.406,5.406,0,0,0,7.019,4,5.019,5.019,0,0,0,3.464,5.506,4.977,4.977,0,0,0,2,9.06a6.811,6.811,0,0,0,2.091,4.266L10.908,20.6a.418.418,0,0,0,.586,0l6.817-7.277A6.811,6.811,0,0,0,20.4,9.06,5.061,5.061,0,0,0,15.383,4Z" transform="translate(-2 -4)" fill="#0f5e79"/>
</svg>
