<svg xmlns="http://www.w3.org/2000/svg" xmlns:xlink="http://www.w3.org/1999/xlink" width="957" height="429" viewBox="0 0 957 429">
  <defs>
    <filter id="Ellipse_32" x="0" y="40" width="194" height="194" filterUnits="userSpaceOnUse">
      <feOffset dy="3" input="SourceAlpha"/>
      <feGaussianBlur stdDeviation="3" result="blur"/>
      <feFlood flood-opacity="0.161"/>
      <feComposite operator="in" in2="blur"/>
      <feComposite in="SourceGraphic"/>
    </filter>
    <filter id="Ellipse_33" x="87" y="121" width="308" height="308" filterUnits="userSpaceOnUse">
      <feOffset dy="3" input="SourceAlpha"/>
      <feGaussianBlur stdDeviation="3" result="blur-2"/>
      <feFlood flood-opacity="0.161"/>
      <feComposite operator="in" in2="blur-2"/>
      <feComposite in="SourceGraphic"/>
    </filter>
    <filter id="Tracé_960" x="327.13" y="0" width="355.87" height="336.105" filterUnits="userSpaceOnUse">
      <feOffset dy="3" input="SourceAlpha"/>
      <feGaussianBlur stdDeviation="3" result="blur-3"/>
      <feFlood flood-opacity="0.161"/>
      <feComposite operator="in" in2="blur-3"/>
      <feComposite in="SourceGraphic"/>
    </filter>
    <filter id="Ellipse_35" x="646" y="42" width="311" height="311" filterUnits="userSpaceOnUse">
      <feOffset dy="3" input="SourceAlpha"/>
      <feGaussianBlur stdDeviation="3" result="blur-4"/>
      <feFlood flood-opacity="0.161"/>
      <feComposite operator="in" in2="blur-4"/>
      <feComposite in="SourceGraphic"/>
    </filter>
  </defs>
  <g id="Groupe_312" data-name="Groupe 312" transform="translate(-159 -1688)">
    <g id="Groupe_111" data-name="Groupe 111" transform="translate(-679 722)">
      <g transform="matrix(1, 0, 0, 1, 838, 966)" filter="url(#Ellipse_32)">
        <circle id="Ellipse_32-2" data-name="Ellipse 32" cx="88" cy="88" r="88" transform="translate(9 46)" fill="#0f5e79"/>
      </g>
      <text id="Je_m_inscris" data-name="Je m’inscris" transform="translate(877 1114)" fill="#fff" font-size="22" font-family="HelveticaNeue, Helvetica Neue"><tspan x="0" y="0">Je m’inscris</tspan></text>
    </g>
    <g id="Groupe_112" data-name="Groupe 112" transform="translate(-810 754)">
      <g transform="matrix(1, 0, 0, 1, 969, 934)" filter="url(#Ellipse_33)">
        <circle id="Ellipse_33-2" data-name="Ellipse 33" cx="145" cy="145" r="145" transform="translate(96 127)" fill="#4c9eba"/>
      </g>
      <text id="Je_cherche_des_événements_qui_pourraient_plaire_à_mes_enfants" data-name="Je cherche des 
événements qui 
pourraient plaire 
à mes enfants" transform="translate(1210 1190)" fill="#fff" font-size="23" font-family="HelveticaNeue, Helvetica Neue"><tspan x="-81.592" y="0">Je cherche des </tspan><tspan x="-84.582" y="37">événements qui </tspan><tspan x="-86.687" y="74">pourraient plaire </tspan><tspan x="-72.22" y="111">à mes enfants</tspan></text>
    </g>
    <g id="Groupe_113" data-name="Groupe 113" transform="translate(-743.951 739)">
      <g transform="matrix(1, 0, 0, 1, 902.95, 949)" filter="url(#Tracé_960)">
        <path id="Tracé_960-2" data-name="Tracé 960" d="M168.935,0c93.3,0,168.935,71.21,168.935,159.053S262.235,318.105,168.935,318.105,0,246.9,0,159.053,75.635,0,168.935,0Z" transform="translate(336.13 6)" fill="#387388"/>
      </g>
      <text id="J_inscris_mes_enfants_à_une_activité_ou_je_poste_une_demande_d_activité_si_je_n_ai_pas_trouvé_celle_qui_me_correspond_" data-name="J’inscris mes enfants à une 
activité ou je poste une 
demande d’activité si je n’ai 
pas trouvé celle qui me 
correspond " transform="translate(1408.016 1096.045)" fill="#fff" font-size="22" font-family="HelveticaNeue, Helvetica Neue"><tspan x="-136.73" y="0">J’inscris mes enfants à une </tspan><tspan x="-116.952" y="35">activité ou je poste une </tspan><tspan x="-139.986" y="70">demande d’activité si je n’ai </tspan><tspan x="-116.963" y="105">pas trouvé celle qui me </tspan><tspan x="-59.29" y="140">correspond </tspan></text>
    </g>
    <g id="Groupe_114" data-name="Groupe 114" transform="translate(-679 786)">
      <g transform="matrix(1, 0, 0, 1, 838, 902)" filter="url(#Ellipse_35)">
        <circle id="Ellipse_35-2" data-name="Ellipse 35" cx="146.5" cy="146.5" r="146.5" transform="translate(655 48)" fill="#1e7896"/>
      </g>
      <text id="Mes_enfants_partagent_une_activité_conviviale_et_construisent_de_nouveaux_liens" data-name="Mes enfants partagent 
une activité conviviale et 
construisent de 
nouveaux 
liens" transform="translate(1640 1079)" fill="#fff" font-size="22" font-family="HelveticaNeue, Helvetica Neue"><tspan x="-113.696" y="0">Mes enfants partagent </tspan><tspan x="-123.255" y="35">une activité conviviale et </tspan><tspan x="-79.057" y="70">construisent de </tspan><tspan x="-50.732" y="105">nouveaux </tspan><tspan x="-22.407" y="140">liens</tspan></text>
    </g>
    <text id="_2" data-name="2" transform="translate(388 1895)" fill="#fff" font-size="40" font-family="PTSerif-Caption, PT Serif Caption"><tspan x="0" y="0">2</tspan></text>
    <text id="_3" data-name="3" transform="translate(652 1775)" fill="#fff" font-size="40" font-family="PTSerif-Caption, PT Serif Caption"><tspan x="0" y="0">3</tspan></text>
    <text id="_1" data-name="1" transform="translate(244 1796)" fill="#fff" font-size="40" font-family="PTSerif-Caption, PT Serif Caption"><tspan x="0" y="0">1</tspan></text>
    <text id="_4" data-name="4" transform="translate(948 1808)" fill="#fff" font-size="40" font-family="PTSerif-Caption, PT Serif Caption"><tspan x="0" y="0">4</tspan></text>
  </g>
</svg>
