<svg xmlns="http://www.w3.org/2000/svg" xmlns:xlink="http://www.w3.org/1999/xlink" width="882" height="425.757" viewBox="0 0 882 425.757">
  <defs>
    <filter id="Ellipse_32" x="0" y="125" width="212" height="212" filterUnits="userSpaceOnUse">
      <feOffset dy="3" input="SourceAlpha"/>
      <feGaussianBlur stdDeviation="3" result="blur"/>
      <feFlood flood-opacity="0.161"/>
      <feComposite operator="in" in2="blur"/>
      <feComposite in="SourceGraphic"/>
    </filter>
    <filter id="Ellipse_33" x="156" y="29" width="236" height="236" filterUnits="userSpaceOnUse">
      <feOffset dy="3" input="SourceAlpha"/>
      <feGaussianBlur stdDeviation="3" result="blur-2"/>
      <feFlood flood-opacity="0.161"/>
      <feComposite operator="in" in2="blur-2"/>
      <feComposite in="SourceGraphic"/>
    </filter>
    <filter id="Tracé_960" x="296" y="136.595" width="306.01" height="289.162" filterUnits="userSpaceOnUse">
      <feOffset dy="3" input="SourceAlpha"/>
      <feGaussianBlur stdDeviation="3" result="blur-3"/>
      <feFlood flood-opacity="0.161"/>
      <feComposite operator="in" in2="blur-3"/>
      <feComposite in="SourceGraphic"/>
    </filter>
    <filter id="Ellipse_35" x="535" y="0" width="347" height="347" filterUnits="userSpaceOnUse">
      <feOffset dy="3" input="SourceAlpha"/>
      <feGaussianBlur stdDeviation="3" result="blur-4"/>
      <feFlood flood-opacity="0.161"/>
      <feComposite operator="in" in2="blur-4"/>
      <feComposite in="SourceGraphic"/>
    </filter>
  </defs>
  <g id="Groupe_311" data-name="Groupe 311" transform="translate(-902 -2455)">
    <text id="_3" data-name="3" transform="translate(1339 2677)" fill="#fff" font-size="40" font-family="PTSerif-Caption, PT Serif Caption"><tspan x="0" y="0">3</tspan></text>
    <g id="Groupe_143" data-name="Groupe 143" transform="translate(82 1574)">
      <g transform="matrix(1, 0, 0, 1, 820, 881)" filter="url(#Ellipse_32)">
        <circle id="Ellipse_32-2" data-name="Ellipse 32" cx="97" cy="97" r="97" transform="translate(9 131)" fill="#1e7896"/>
      </g>
      <text id="J_inscris_mon_établissement" data-name="J’inscris mon 
établissement" transform="translate(858 1117)" fill="#fff" font-size="22" font-family="HelveticaNeue, Helvetica Neue"><tspan x="0" y="0">J’inscris mon </tspan><tspan x="0" y="35">établissement</tspan></text>
    </g>
    <g id="Groupe_144" data-name="Groupe 144" transform="translate(2 1429)">
      <g transform="matrix(1, 0, 0, 1, 900, 1026)" filter="url(#Ellipse_33)">
        <circle id="Ellipse_33-2" data-name="Ellipse 33" cx="109" cy="109" r="109" transform="translate(165 35)" fill="#387388"/>
      </g>
      <text id="Je_crée_le_profil_de_mes_résidents_" data-name="Je crée le profil de 
mes résidents " transform="translate(1174 1178)" fill="#fff" font-size="22" font-family="HelveticaNeue, Helvetica Neue"><tspan x="-93.511" y="0">Je crée le profil de </tspan><tspan x="-71.929" y="35">mes résidents </tspan></text>
    </g>
    <g id="Groupe_145" data-name="Groupe 145" transform="translate(-32.081 1642.595)">
      <g transform="matrix(1, 0, 0, 1, 934.08, 812.4)" filter="url(#Tracé_960)">
        <path id="Tracé_960-2" data-name="Tracé 960" d="M144.005,0C223.537,0,288.01,60.7,288.01,135.581S223.537,271.162,144.005,271.162,0,210.46,0,135.581,64.473,0,144.005,0Z" transform="translate(305 142.6)" fill="#0f5e79"/>
      </g>
      <text id="Je_poste_une_proposition_d_événement_et_ou_de_mise_à_disposition_d_un_lieu_" data-name="Je poste une proposition 
d’événement et/ou de 
mise à disposition 
d’un lieu " transform="translate(1383.086 1077.045)" fill="#fff" font-size="22" font-family="HelveticaNeue, Helvetica Neue"><tspan x="-125.114" y="0">Je poste une proposition </tspan><tspan x="-110.858" y="35">d’événement et/ou de </tspan><tspan x="-91.894" y="70">mise à disposition </tspan><tspan x="-44.836" y="105">d’un lieu </tspan></text>
    </g>
    <g id="Groupe_146" data-name="Groupe 146" transform="translate(-47 1547)">
      <g transform="matrix(1, 0, 0, 1, 949, 908)" filter="url(#Ellipse_35)">
        <circle id="Ellipse_35-2" data-name="Ellipse 35" cx="164.5" cy="164.5" r="164.5" transform="translate(544 6)" fill="#4c9eba"/>
      </g>
      <text id="Les_seniors_de_mon_établissement_passent_des_moments_conviviaux_et_créent_de_nouveaux_liens_" data-name="Les seniors de mon 
établissement passent des 
moments conviviaux 
et créent de nouveaux liens " transform="translate(1658 1046)" fill="#fff" font-size="22" font-family="HelveticaNeue, Helvetica Neue"><tspan x="-99.44" y="0">Les seniors de mon </tspan><tspan x="-134.486" y="35">établissement passent des </tspan><tspan x="-104.126" y="70">moments conviviaux </tspan><tspan x="-138.138" y="105">et créent de nouveaux liens </tspan></text>
    </g>
    <text id="_2" data-name="2" transform="translate(1163 2551)" fill="#fff" font-size="40" font-family="PTSerif-Caption, PT Serif Caption"><tspan x="0" y="0">2</tspan></text>
    <text id="_4" data-name="4" transform="translate(1599 2537)" fill="#fff" font-size="40" font-family="PTSerif-Caption, PT Serif Caption"><tspan x="0" y="0">4</tspan></text>
    <text id="_1" data-name="1" transform="translate(996 2651)" fill="#fff" font-size="40" font-family="PTSerif-Caption, PT Serif Caption"><tspan x="0" y="0">1</tspan></text>
    <text id="_3-2" data-name="3" transform="translate(1339 2672)" fill="#fff" font-size="40" font-family="PTSerif-Caption, PT Serif Caption"><tspan x="0" y="0">3</tspan></text>
  </g>
</svg>
