<svg xmlns="http://www.w3.org/2000/svg" width="668.394" height="155.987" viewBox="0 0 668.394 155.987"><path d="M0,0H668.394V155.987H0Z" transform="translate(0 0)" fill="#fafafa"/><g transform="translate(48.622 76.353)" fill="#fafafa" stroke="#fff" stroke-width="1"><rect width="104" height="15" stroke="none"/><rect x="0.5" y="0.5" width="103" height="14" fill="none"/></g><text transform="translate(40.622 42.277)" fill="#1a1a1a" font-size="21" font-family="Arial-BoldMT, Arial" font-weight="700"><tspan x="0" y="0">Lieu de l’évènement</tspan></text><g transform="translate(40.622 66.525)" fill="#fff"><path d="M 512 48.5 L 5 48.5 C 2.518666744232178 48.5 0.5 46.4813346862793 0.5 44 L 0.5 5 C 0.5 2.518666744232178 2.518666744232178 0.5 5 0.5 L 512 0.5 C 514.4813232421875 0.5 516.5 2.518666744232178 516.5 5 L 516.5 44 C 516.5 46.4813346862793 514.4813232421875 48.5 512 48.5 Z" stroke="none"/><path d="M 5 1 C 2.79437255859375 1 1 2.794399261474609 1 5 L 1 44 C 1 46.20560073852539 2.79437255859375 48 5 48 L 512 48 C 514.2056274414062 48 516 46.20560073852539 516 44 L 516 5 C 516 2.794399261474609 514.2056274414062 1 512 1 L 5 1 M 5 0 L 512 0 C 514.7614135742188 0 517 2.238601684570312 517 5 L 517 44 C 517 46.76139831542969 514.7614135742188 49 512 49 L 5 49 C 2.23858642578125 49 0 46.76139831542969 0 44 L 0 5 C 0 2.238601684570312 2.23858642578125 0 5 0 Z" stroke="none" fill="#707070"/></g><text transform="translate(65.045 98.525)" fill="#b4b4b4" font-size="21" font-family="ArialMT, Arial"><tspan x="0" y="0">Entrez l&apos;adresse de votre lieu de rencontre</tspan></text></svg>