<svg xmlns="http://www.w3.org/2000/svg" width="24.64" height="28.192" viewBox="0 0 24.64 28.192">
  <path id="Icon_awesome-running" data-name="Icon awesome-running" d="M16.111,5.286a2.749,2.749,0,0,0,2.843-2.643A2.749,2.749,0,0,0,16.111,0a2.749,2.749,0,0,0-2.843,2.643A2.749,2.749,0,0,0,16.111,5.286Zm-9.377,12.2-.877,1.9H1.9a1.767,1.767,0,1,0,0,3.524H6.483A2.85,2.85,0,0,0,9.1,21.3l.521-1.13-.632-.347A5.391,5.391,0,0,1,6.734,17.481Zm16.011-5.147H20.137L18.593,9.4A5.609,5.609,0,0,0,14.934,6.6l-4.21-1.164a6,6,0,0,0-4.788.944L3.586,8.051a1.68,1.68,0,0,0-.351,2.47,1.993,1.993,0,0,0,2.657.326L8.243,9.173a1.952,1.952,0,0,1,1.5-.338l.871.241L8.392,13.887A3.41,3.41,0,0,0,9.95,18.31l5.033,2.763L13.356,25.9A1.742,1.742,0,0,0,14.6,28.111a2.026,2.026,0,0,0,.567.081,1.888,1.888,0,0,0,1.808-1.236l1.874-5.565A2.575,2.575,0,0,0,17.565,18.4l-3.627-1.99,1.855-4.31,1.2,2.281a2.888,2.888,0,0,0,2.553,1.481h3.2a1.767,1.767,0,1,0,0-3.524Z" fill="#a0a0a0"/>
</svg>
