<svg xmlns="http://www.w3.org/2000/svg" width="27.551" height="8.537" viewBox="0 0 27.551 8.537">
  <path id="Icon_awesome-hand-holding" data-name="Icon awesome-hand-holding" d="M27.037,22.86a1.676,1.676,0,0,0-2.037,0l-4.419,3.286a3.193,3.193,0,0,1-1.913.623H13.009a.713.713,0,1,1,0-1.423h3.745a1.571,1.571,0,0,0,1.593-1.183A1.461,1.461,0,0,0,16.836,22.5H9.183a5.9,5.9,0,0,0-3.544,1.169L3.415,25.346H.765A.742.742,0,0,0,0,26.057v4.269a.742.742,0,0,0,.765.711H17.83a3.214,3.214,0,0,0,1.913-.623l7.232-5.38A1.359,1.359,0,0,0,27.037,22.86Z" transform="translate(0 -22.5)" fill="#afb0b2"/>
</svg>
