<svg xmlns="http://www.w3.org/2000/svg" width="22.132" height="29.509" viewBox="0 0 22.132 29.509"><path d="M12.91,7.838V0H1.383A1.38,1.38,0,0,0,0,1.383V28.126a1.38,1.38,0,0,0,1.383,1.383H20.748a1.38,1.38,0,0,0,1.383-1.383V9.222H14.293A1.387,1.387,0,0,1,12.91,7.838ZM16.6,21.44a.694.694,0,0,1-.692.692H6.225a.694.694,0,0,1-.692-.692v-.461a.694.694,0,0,1,.692-.692h9.683a.694.694,0,0,1,.692.692Zm0-3.689a.694.694,0,0,1-.692.692H6.225a.694.694,0,0,1-.692-.692V17.29a.694.694,0,0,1,.692-.692h9.683a.694.694,0,0,1,.692.692Zm0-4.15v.461a.694.694,0,0,1-.692.692H6.225a.694.694,0,0,1-.692-.692V13.6a.694.694,0,0,1,.692-.692h9.683A.694.694,0,0,1,16.6,13.6Zm5.533-6.576v.352H14.754V0h.352a1.382,1.382,0,0,1,.98.4l5.642,5.648A1.379,1.379,0,0,1,22.132,7.026Z" fill="#ffc100"/></svg>