<svg xmlns="http://www.w3.org/2000/svg" width="20.141" height="21.399" viewBox="0 0 20.141 21.399">
  <path id="Icon_awesome-calendar-alt" data-name="Icon awesome-calendar-alt" d="M0,19.393A2.087,2.087,0,0,0,2.158,21.4H17.983a2.087,2.087,0,0,0,2.158-2.006V8.025H0ZM14.386,11.2a.523.523,0,0,1,.539-.5h1.8a.523.523,0,0,1,.539.5v1.672a.523.523,0,0,1-.539.5h-1.8a.523.523,0,0,1-.539-.5Zm0,5.35a.523.523,0,0,1,.539-.5h1.8a.523.523,0,0,1,.539.5v1.672a.523.523,0,0,1-.539.5h-1.8a.523.523,0,0,1-.539-.5ZM8.632,11.2a.523.523,0,0,1,.539-.5h1.8a.523.523,0,0,1,.539.5v1.672a.523.523,0,0,1-.539.5h-1.8a.523.523,0,0,1-.539-.5Zm0,5.35a.523.523,0,0,1,.539-.5h1.8a.523.523,0,0,1,.539.5v1.672a.523.523,0,0,1-.539.5h-1.8a.523.523,0,0,1-.539-.5ZM2.877,11.2a.523.523,0,0,1,.539-.5h1.8a.523.523,0,0,1,.539.5v1.672a.523.523,0,0,1-.539.5h-1.8a.523.523,0,0,1-.539-.5Zm0,5.35a.523.523,0,0,1,.539-.5h1.8a.523.523,0,0,1,.539.5v1.672a.523.523,0,0,1-.539.5h-1.8a.523.523,0,0,1-.539-.5ZM17.983,2.675H15.825V.669A.7.7,0,0,0,15.106,0H13.667a.7.7,0,0,0-.719.669V2.675H7.193V.669A.7.7,0,0,0,6.474,0H5.035a.7.7,0,0,0-.719.669V2.675H2.158A2.087,2.087,0,0,0,0,4.681V6.687H20.141V4.681A2.087,2.087,0,0,0,17.983,2.675Z" fill="#a0a0a0"/>
</svg>
