<svg xmlns="http://www.w3.org/2000/svg" width="33.198" height="33.205" viewBox="0 0 33.198 33.205"><g transform="translate(0)"><path d="M31.465,32.558V11.283a3.416,3.416,0,0,0-3.408-3.408H6.783a3.416,3.416,0,0,0-3.408,3.408V32.566a3.416,3.416,0,0,0,3.408,3.408H28.066A3.426,3.426,0,0,0,31.465,32.558ZM12.1,23.2,15.712,28.3l5.323-7.661,7.023,10.215H6.783Z" transform="translate(-3.375 -2.768)" fill="#0f5e79"/><path d="M32.558,3.375H11.283A3.416,3.416,0,0,0,7.875,6.783v.423H28.727a3.416,3.416,0,0,1,3.408,3.408V31.465h.423a3.416,3.416,0,0,0,3.408-3.408V6.783A3.416,3.416,0,0,0,32.558,3.375Z" transform="translate(-2.768 -3.375)" fill="#0f5e79"/></g></svg>