<svg xmlns="http://www.w3.org/2000/svg" width="31.373" height="29.174" viewBox="0 0 31.373 29.174"><path d="M35.5,31.555l-8.725-8.188a11.1,11.1,0,0,0,2.737-7.254c0-6.418-5.6-11.621-12.508-11.621S4.5,9.7,4.5,16.121s5.6,11.621,12.508,11.621a13.058,13.058,0,0,0,7.884-2.6l8.668,8.135a1.416,1.416,0,0,0,1.9.046A1.2,1.2,0,0,0,35.5,31.555Zm-18.5-6.312a10.145,10.145,0,0,1-6.944-2.674,8.668,8.668,0,0,1,0-12.9,10.356,10.356,0,0,1,13.889,0,8.668,8.668,0,0,1,0,12.9A10.145,10.145,0,0,1,17.008,25.243Z" transform="translate(-4.5 -4.493)" fill="#fff"/></svg>