<?xml version="1.0" encoding="utf-8"?>
<!-- Generator: Adobe Illustrator 26.0.3, SVG Export Plug-In . SVG Version: 6.00 Build 0)  -->
<svg version="1.1" id="Calque_1" xmlns="http://www.w3.org/2000/svg" xmlns:xlink="http://www.w3.org/1999/xlink" x="0px" y="0px"
	 viewBox="0 0 263.5 99.9" style="enable-background:new 0 0 263.5 99.9;" xml:space="preserve">
<style type="text/css">
	.st0{fill:#FFFFFF;}
	.st1{font-family:'DrMarz-Bold';}
	.st2{font-size:72.8646px;}
	.st3{font-size:72.9583px;}
	.st4{font-size:72.8436px;}
	.st5{font-size:73.1987px;}
	.st6{font-size:72.8191px;}
	.st7{font-size:72.3846px;}
	.st8{fill:none;stroke:#FFFFFF;stroke-width:6;stroke-miterlimit:10;}
	.st9{fill:#F39200;}
</style>
<g id="Calque_2_00000026131645315709857420000017328174601645307802_">
	<text transform="matrix(0.9298 -0.19 0.2 0.9798 12.6312 76.3597)" class="st0 st1 st2">P</text>
	<text transform="matrix(0.9492 -3.996804e-02 3.996804e-02 0.9992 87.2907 64.189)" class="st0 st1 st3">t</text>
	<text transform="matrix(0.95 9.999501e-03 -9.999500e-03 0.9999 124.8212 63.0884)" class="st0 st1 st4">&apos;</text>
	<text transform="matrix(0.9477 5.985354e-02 -6.982913e-02 0.9976 136.111 62.869)" class="st0 st1 st5">A</text>
	<text transform="matrix(0.9401 0.14 -0.14 0.9901 174.6713 65.439)" class="st0 st1 st6">g</text>
	<text transform="matrix(0.9329 0.2207 -0.2307 0.973 208.7511 70.2097)" class="st0 st1 st7">é</text>
	<path class="st8" d="M82,60.6L82,60.6c-0.1-0.4-0.2-0.7-0.3-1.1c-0.6-1.7-1.2-3.4-1.7-5.1c-0.1-0.3-0.1-0.7,0.1-1
		c0.6-1.1,1.1-2.3,1.5-3.4c0.5-1.6,0.8-3.3,0.8-5c0-2.3-0.4-4.6-1.4-6.7c-1.1-2.6-2.9-5-5.1-6.8c-1.5-1.2-3.2-2.2-5-2.8
		c-1.9-0.7-3.8-1-5.8-1.1c-4.9-0.1-9.7,1.8-13.1,5.3c-2.2,2.2-3.7,5-4.4,8c-0.3,1-0.4,2-0.5,3c-0.2,2.3,0.2,4.6,1,6.8
		c1.1,3,3,5.7,5.5,7.7c1.4,1.1,2.9,2,4.5,2.6c2.8,1.1,5.9,1.5,8.9,1.1c1.9-0.2,3.8-0.8,5.6-1.7c0.9-0.5,1.9-1.1,2.7-1.7
		c0.3-0.2,0.6-0.3,1-0.1l3.2,1.1L82,60.6z"/>
	<path d="M65,38.1c0.4-0.7,1-1.3,1.6-1.8c2.4-1.6,5.7-1.4,7.9,0.5c1.1,0.8,1.9,2,2.3,3.3c0.4,1.5,0.3,3-0.3,4.4
		c-0.8,1.7-1.9,3.3-3.3,4.6c-1.9,1.8-3.7,3.6-5.4,5.6c-0.5,0.6-1.1,1.2-1.6,1.8c-0.2,0.4-0.7,0.5-1,0.2c0,0,0,0-0.1,0
		c-0.1-0.1-0.1-0.1-0.2-0.2c-0.5-0.5-1-1-1.5-1.5c-1.5-1.4-3-2.8-4.6-4.2C58,50,57,49.1,56.1,48.3c-0.7-0.8-1.4-1.6-1.9-2.5
		c-0.8-1.2-1.2-2.6-1.1-4c0.1-1.2,0.6-2.4,1.4-3.4c1.3-1.9,3.6-3,5.9-2.8c1.7,0,3.3,0.8,4.3,2.2C64.8,37.9,64.9,38,65,38.1z
		 M65.6,55.1c0-0.1,0.1-0.2,0.1-0.2c0.7-0.8,1.3-1.5,2-2.2c1.4-1.4,2.9-2.9,4.3-4.4c1-1,1.9-2.1,2.6-3.4c0.6-0.9,0.9-2,0.9-3.1
		c-0.2-2.4-1.9-4.4-4.2-4.9c-1.9-0.5-4,0.3-5,2c-0.2,0.4-0.4,0.8-0.6,1.2c-0.1,0.3-0.4,0.5-0.7,0.5c-0.3,0-0.6-0.3-0.7-0.6
		c-0.8-2.2-3.1-3.4-5.3-2.8c-2.1,0.4-3.7,2-4.2,4.1c-0.3,1.5,0,3.1,1,4.4c0.9,1.2,1.9,2.3,3,3.3c1.6,1.3,3.1,2.7,4.6,4.1
		C64.2,53.6,64.9,54.3,65.6,55.1z"/>
	<path class="st9" d="M65.7,55.2c-0.8-0.8-1.4-1.5-2.2-2.2c-1.5-1.3-3-2.7-4.6-4.1c-1.2-0.9-2.2-2-3.1-3.3c-0.9-1.2-1.3-2.8-1-4.4
		c0.4-2.1,2.1-3.7,4.2-4.1c2.2-0.6,4.5,0.6,5.3,2.7c0.1,0.3,0.4,0.5,0.7,0.5c0.3,0,0.6-0.2,0.7-0.5c0.2-0.4,0.4-0.8,0.6-1.2
		c1.1-1.7,3.1-2.5,5.1-2c2.4,0.5,4.1,2.5,4.3,5c0,1.1-0.3,2.2-0.9,3.2c-0.7,1.2-1.6,2.4-2.6,3.4c-1.5,1.5-2.9,2.9-4.3,4.4
		c-0.7,0.7-1.4,1.5-2,2.2C65.8,55,65.7,55.1,65.7,55.2z M59.9,39.7c0.1,0,0.3,0,0.4,0c0.4-0.1,0.6-0.4,0.6-0.7
		c0-0.4-0.3-0.6-0.6-0.7c0,0,0,0,0,0h-0.1c-0.5,0-1,0-1.4,0.1c-1.6,0.3-2.7,1.8-2.6,3.4c0,0.4,0.3,0.7,0.7,0.7
		c0.3,0,0.6-0.2,0.7-0.6c0-0.2,0-0.4,0.1-0.6C57.8,40.2,58.7,39.8,59.9,39.7z"/>
	<path class="st0" d="M59.8,39.8c-1.2,0.1-2,0.5-2.3,1.6c0,0.2,0,0.4-0.1,0.6c-0.1,0.4-0.4,0.6-0.8,0.6c-0.3-0.1-0.6-0.3-0.6-0.7
		c-0.1-1.6,1-3.1,2.6-3.4c0.5-0.1,1-0.1,1.4-0.1c0.3,0,0.7,0.2,0.7,0.6c0,0,0,0,0,0V39c0,0.4-0.2,0.7-0.6,0.7
		C60.1,39.8,60,39.8,59.8,39.8z"/>
</g>
</svg>
