<svg id="Calque_1" data-name="Calque 1" xmlns="http://www.w3.org/2000/svg" viewBox="0 0 248.37955 73.20616"><defs><style>.cls-1{isolation:isolate;}.cls-2{fill:#0f5e79;}.cls-3{fill:none;stroke:#0f5e79;stroke-miterlimit:10;stroke-width:6px;}.cls-4{fill:#f39200;}.cls-5{fill:#fff;}</style></defs><g id="Calque_2" data-name="Calque 2"><g class="cls-1"><path class="cls-2" d="M30.04,74.51305l-1.21924.249a3.58075,3.58075,0,0,1-1.07226.10742,2.07858,2.07858,0,0,1-.55909-.14551l-.30029-.08691a5.452,5.452,0,0,1-2.15478-1.04687,18.58628,18.58628,0,0,1-1.86426-1.70215,2.52513,2.52513,0,0,0-.34424-.30274,24.23172,24.23172,0,0,1-3.46729-6.61523q-1.22533-3.57861-2.11865-7.26563l-.65967-2.543-.07275-.35546a2.9727,2.9727,0,0,0-2.69775-2.499A10.76492,10.76492,0,0,1,9.57031,49.9525a30.70686,30.70686,0,0,1-3.165-3.40625,13.253,13.253,0,0,1-.66992-2.24365,20.16233,20.16233,0,0,1-.29883-2.5044,4.80722,4.80722,0,0,1,1.1709-3.252,1.85708,1.85708,0,0,1,.98194-.72119,1.54258,1.54258,0,0,1,.939.105c.26416.14551.55225.28516.86182.41894a6.90114,6.90114,0,0,0,2.85107.83155l-.1167-.57129a2.875,2.875,0,0,0-.063-.65723c-.03906-.18945-.10644-.46142-.20166-.81347-.09619-.35254-.1958-.728-.30078-1.12891a4.17848,4.17848,0,0,0-.269-.80029,2.29323,2.29323,0,0,0-.89111-.56153,2.21214,2.21214,0,0,1-.731-.29638,1.66045,1.66045,0,0,1-.60059-.69483,3.92153,3.92153,0,0,1-2.46972-1.72754,4.778,4.778,0,0,1-.64112-3.1416,6.67055,6.67055,0,0,1,.64795-3.73877,11.19016,11.19016,0,0,1,2.207-3.0166,15.71052,15.71052,0,0,1,5.21973-2.77783q1.2063-.31933,2.49268-.58252,1.626-.33252,3.34912-.53613.8562.04833,1.7666.01025a13.43222,13.43222,0,0,1,5.00976.68652q1.24367.56544,2.47413,1.05713a16.1602,16.1602,0,0,1,5.47607,2.97119,16.23973,16.23973,0,0,1,4.90674,5.021A13.10483,13.10483,0,0,1,42.13867,33.517q.14576.71485.375,3.04639a11.53464,11.53464,0,0,1-1.395,5.78955,25.88578,25.88578,0,0,1-1.98144,3.08252,14.44109,14.44109,0,0,1-2.65528,2.5498q-.89208.48121-1.71289.94483a21.04512,21.04512,0,0,1-4.73681,2.38086A8.45469,8.45469,0,0,1,27.168,52.49156a6.89682,6.89682,0,0,1-1.45166.14746,23.03879,23.03879,0,0,1,.64551,2.47168q.2124.7002.374,1.48535A32.67758,32.67758,0,0,0,31.58447,68.2484a4.19938,4.19938,0,0,1,.77,1.70117,6.11655,6.11655,0,0,1-.124,2.33106A3.16765,3.16765,0,0,1,30.04,74.51305ZM23.74561,45.75328l.13574-.02734c.04443-.00928.10156-.021.16943-.03467a.541.541,0,0,0,.22315-.11963l.33837-.06934a12.819,12.819,0,0,0,3.74415-2.40136l1.34472-1.01807a4.88739,4.88739,0,0,0,1.18994-1.43359,7.9,7.9,0,0,1,.77344-1.0503,16.89987,16.89987,0,0,0,.99072-2.062,3.533,3.533,0,0,0,.35694-1.70849,12.05587,12.05587,0,0,0-.17969-1.228l-.21875-1.07129a3.36868,3.36868,0,0,0-.53369-1.22949,2.91433,2.91433,0,0,1-.61524-1.28662,12.51182,12.51182,0,0,0-5.2207-4.13965A7.62776,7.62776,0,0,0,23.3252,26.057a4.98653,4.98653,0,0,0-2.41993-.10058l-.33886.06933a6.0469,6.0469,0,0,1-.896.10889,3.09443,3.09443,0,0,0-.624.05322,2.49016,2.49016,0,0,0-.59522.1958.84588.84588,0,0,0,.00537.3711,2.05815,2.05815,0,0,0,.15479.41406,2.83778,2.83778,0,0,0,.31982.52978l.417.65821.126.27246.00537.37012.2041,1a44.46828,44.46828,0,0,0,1.26123,4.79833q.21314.70093.4126,1.32959l.13135.64161Q22.81372,41.18467,23.74561,45.75328Z" transform="translate(-5.42773 -7.75914)"/></g><g class="cls-1"><path class="cls-2" d="M109.8916,67.32652l-.62353.02637a8.38543,8.38543,0,0,1-7.42871-3.63086A35.45268,35.45268,0,0,1,97.8833,54.14a82.68616,82.68616,0,0,1-1.90137-10.25244q-.12524-1.38135-.396-2.977-.26661-1.44947-.39112-2.832l-.01757-.437a5.55613,5.55613,0,0,1,.20459-1.83447,16.54406,16.54406,0,0,1-4.06592.68262,16.17848,16.17848,0,0,1-3.0586-.16309A4.11577,4.11577,0,0,1,85.16309,33.536a5.79066,5.79066,0,0,1-.34766-1.73829,5.6412,5.6412,0,0,1,.521-2.57763A3.2321,3.2321,0,0,1,87.67334,26.931a10.71692,10.71692,0,0,1,2.41211-.39356,6.61928,6.61928,0,0,1,.97217.03223,9.13735,9.13735,0,0,0,1.15332.20654c.44092.05469.8706.09863,1.28808.12891a5.89458,5.89458,0,0,1,1.53272.15381,4.48475,4.48475,0,0,1-.41065-1.58887l-.09082-2.25977q-.04614-1.16528-.15673-2.18457l-.0376-.94726q-.03516-.87525-.14258-1.81983-.1062-.94335-.14453-1.89258-.03809-.94629-.00684-1.89794a4.33552,4.33552,0,0,1,1.74463-3.21338,4.61778,4.61778,0,0,1,2.66553-.98829,4.51977,4.51977,0,0,1,.76514.04053,3.57316,3.57316,0,0,1,3.19482,1.83692,5.92631,5.92631,0,0,1,.73144,2.67138,9.58784,9.58784,0,0,1-.02587,1.09619l.061,1.53125q.05859,1.459.04736,2.91895-.07544,1.60986-.00976,3.21338.0498,1.24.165,2.40283a26.16348,26.16348,0,0,0,4.76123-.63916,26.61913,26.61913,0,0,1,5.17383-.729,2.98487,2.98487,0,0,1,3.05957,1.916,3.87628,3.87628,0,0,1,.40673,1.51612,3.91555,3.91555,0,0,1-.67089,2.29248,6.0659,6.0659,0,0,1-2.66065,1.97412,17.42256,17.42256,0,0,1-3.32861.90625,13.8485,13.8485,0,0,0-1.37647.27734,14.85175,14.85175,0,0,1-3.30371.6499,14.54866,14.54866,0,0,0-2.00244.231,80.48942,80.48942,0,0,0,2.80664,18.13721,10.18985,10.18985,0,0,0,1.6416,3.76465,4.57188,4.57188,0,0,0,3.2378,2.01757,5.32205,5.32205,0,0,0,3.6167-2.34277,23.20266,23.20266,0,0,0,2.23242-4.03711,14.31165,14.31165,0,0,0,.84472-1.42285,9.09661,9.09661,0,0,1,1.43555-2.25147,2.92566,2.92566,0,0,1,1.90479-.95605,2.49893,2.49893,0,0,1,1.54687.519,3.898,3.898,0,0,1,1.72656,3.28614l.00586.14648a19.2569,19.2569,0,0,1-2.70263,8.73047A13.89615,13.89615,0,0,1,109.8916,67.32652Z" transform="translate(-5.42773 -7.75914)"/></g><g class="cls-1"><path class="cls-2" d="M136.13086,18.77477a13.40287,13.40287,0,0,1,.05469,1.38427,16.27362,16.27362,0,0,1-4.81885,11.23975A5.05292,5.05292,0,0,1,127.751,33.182l-.13868-.00146q-2.00756-.02124-2.12109-2.42627l.00147-.14551a8.63679,8.63679,0,0,1,1.56591-4.354q.98145-1.30079,1.189-1.29883a1.28737,1.28737,0,0,1-.07227.29053q.83351-.282.835-.42872.0022-.21825-.82666-.37255a21.34644,21.34644,0,0,1-3.50146-2.80469,12.7642,12.7642,0,0,1-1.46094-6.13379l.00586-.583q.43579-2.03321.939-3.92334a5.675,5.675,0,0,1,4.52392-2.57471,6.39545,6.39545,0,0,1,1.31348.15967,11.20335,11.20335,0,0,1,3.9165,2.88184,10.01821,10.01821,0,0,1,2.28711,6.57959A2.73846,2.73846,0,0,1,136.13086,18.77477Zm-6.6167-2.83789q.96827.01024,1.11133-.35254a1.61618,1.61618,0,0,0-.28565.87109,3.93311,3.93311,0,0,0,.32813,1.82471c-.00049.04882-.0249.07226-.07031.07177a1.77771,1.77771,0,0,1-.41455-.07714,7.194,7.194,0,0,0-.96729-.15577l-.06885-.00048.13867-.07178.06934.00049q-.00074.074-.14062.21728c-.04639-.00049-.06739-.16992-.064-.51025a5.79419,5.79419,0,0,0-.26025-1.67822,1.83248,1.83248,0,0,0-.47852-.58741A1.45844,1.45844,0,0,0,129.51416,15.93688Z" transform="translate(-5.42773 -7.75914)"/></g><g class="cls-1"><path class="cls-2" d="M141.55469,66.73473l-.625-.03907a2.31874,2.31874,0,0,1-1.82715-.77636,4.17369,4.17369,0,0,0-.835-1.00586l-1.25391-1.98633a2.258,2.258,0,0,0-.18847-.30469,4.37124,4.37124,0,0,1-.67872-2.24316,4.83,4.83,0,0,1,.708-2.15625c.10645-.18848.21289-.40137.32324-.63965a16.57226,16.57226,0,0,1,1.41016-3.21094,2.43012,2.43012,0,0,0,.32813-.71289,14.18579,14.18579,0,0,1,1.08593-2.57226q.48926-.9961,1.07032-2.35352.583-1.355,1.22949-2.63574,1.05322-2.13428,1.47363-3.13477a12.30008,12.30008,0,0,1,.73828-1.56689,3.5649,3.5649,0,0,0,.45313-1.51123,1.77356,1.77356,0,0,1,.3584-1.15088,2.68262,2.68262,0,0,0,.62207-.91455l.40332-.78174a5.25589,5.25589,0,0,0,.52929-1.58057,1.76124,1.76124,0,0,1,.26856-.86279,2.68227,2.68227,0,0,0,.47265-.77686,10.64912,10.64912,0,0,0,.50782-1.28808l.77734-2.15137a9.69352,9.69352,0,0,0,.9043-2.95068,84.01588,84.01588,0,0,0,2.07617-8.74365q.48339-1.94972.65332-2.37891a16.1358,16.1358,0,0,0,.52832-3.561,20.501,20.501,0,0,1,.46875-3.71142q.26953-.86353,1.90039-1.27344a4.24953,4.24953,0,0,1,1.10547.14307.49934.49934,0,0,0,.20117.08642q2.75684.4673,2.94336.77246a.60658.60658,0,0,0,.53906.2544c.27832.01709.51367.27685.71289.77783l-.26757-.16309c.0039-.04785.07421-.06933.21289-.06054a.91715.91715,0,0,1,.67773.26318l.06445.07764c-.00586.09814-.14746.1372-.42578.11963q2.28956.145,3.999,4.57959.28125.97264.57128,1.79687.28419.89868.5625,1.94287a.81738.81738,0,0,0,.043.36914q.65333,2.61036,1.12891,4.76563a35.44055,35.44055,0,0,1,.64648,3.708,91.81776,91.81776,0,0,1,1.78223,10.38183,54.63537,54.63537,0,0,0,1.01465,5.41846,9.47208,9.47208,0,0,1,.293,1.77881,41.63467,41.63467,0,0,0,1.78125,8.40088l.23047.6748a10.40134,10.40134,0,0,0,.75,2.24805,20.1163,20.1163,0,0,1,.97461,2.99512l.20605,1.04a7.55215,7.55215,0,0,1,.29395,1.7793,2.76457,2.76457,0,0,1-.88672,1.7041,4.578,4.578,0,0,1-1.67188.99512.65308.65308,0,0,0-.49609.11523q-.15528.20948-1.67969.11329a8.90774,8.90774,0,0,1-3.07617-.85352,3.78194,3.78194,0,0,1-1.74805-2.89844l-.082-.81152a29.15254,29.15254,0,0,0-.63477-2.90137l-.4082-1.125c-.293-1.14355-.49219-1.91406-.60351-2.3125a4.47625,4.47625,0,0,1-.09961-.59277l-.11328-.374a5.87915,5.87915,0,0,1-.22559-.748,2.3214,2.3214,0,0,0-.22168-.82031l-.49023-1.93848a13.40594,13.40594,0,0,1-.417-2.00635,8.22683,8.22683,0,0,0-.34863-2.00293,12.29017,12.29017,0,0,1-.40137-2.22607l-.06933-.0044.00586-.07275-.07032-.0044a5.155,5.155,0,0,0-.93261.38135,4.40419,4.40419,0,0,1-1.3584.501,49.47285,49.47285,0,0,1-6.97754,2.127c-.18848.03711-.33984.19824-.45215.48438a5.32619,5.32619,0,0,0-.41894,1.00049l-1.29786,2.63183-1.41015,3.21143a6.26954,6.26954,0,0,0-.67188,1.64453l-.02148.293a29.71726,29.71726,0,0,1-1.31348,4.83008,6.75643,6.75643,0,0,0-.46,1.58593,5.30446,5.30446,0,0,1-.75586,1.85938A5.95529,5.95529,0,0,1,141.55469,66.73473Zm17.89843-45.666q-.93456,3.38966-1.97265,7.28369-1.456,5.84985-2.51172,9.01026a1.51128,1.51128,0,0,0,1.01563.43066q1.59375.10107,5.01367-1.957-.35889-3.8357-.74805-7.23584Q159.86621,25.1295,159.45312,21.06871Z" transform="translate(-5.42773 -7.75914)"/></g><g class="cls-1"><path class="cls-2" d="M193.20117,80.7152a27.46,27.46,0,0,1-2.78613-.5625,37.58046,37.58046,0,0,1-6.93652-2.3584A13.43052,13.43052,0,0,1,177.8584,73.056a3.4472,3.4472,0,0,1-.69043-2.53223,11.015,11.015,0,0,1,.37012-1.38184,4.43527,4.43527,0,0,1,1.72461-2.06054,3.58368,3.58368,0,0,1,2.75683-1.209l.41016.06055a2.92288,2.92288,0,0,1,2.0957,1.49023,1.28979,1.28979,0,0,1,.57227.89453,3.91107,3.91107,0,0,1-.00391,1.03028,4.20572,4.20572,0,0,0,.10937,1.19433,24.26687,24.26687,0,0,0,8.918,3.169,2.73262,2.73262,0,0,0,2.65625-1.48242,14.12753,14.12753,0,0,0,1.29493-3.23047,2.57052,2.57052,0,0,1,.15039-.56641,5.10891,5.10891,0,0,1,.17968-.78222q.28419-1.5044.498-3.01856.21387-1.51318.3584-3.03808a42.00828,42.00828,0,0,0,.416-5.90137l-.22363-.40137a11.48544,11.48544,0,0,1-5.04492,4.54883,8.62975,8.62975,0,0,1-4.18359.4082,18.12905,18.12905,0,0,1-2.32032-.64062,10.90518,10.90518,0,0,1-3.80664-2.48145,15.186,15.186,0,0,1-4.03906-7.52148,20.23839,20.23839,0,0,1,.02148-5.5918q.09082-.64893.51758-2.68408a36.54993,36.54993,0,0,1,1.65039-5.23828,19.66794,19.66794,0,0,1,2.17676-4.02c.16992-.21924.34473-.46387.52246-.73145a9.38223,9.38223,0,0,1,8.78028-3.77246l1.50683.22412a14.7083,14.7083,0,0,1,2.16406.50635,3.93717,3.93717,0,0,1,2.01172,1.58838,1.63663,1.63663,0,0,1,.73633.47754c.31055.292.64453.63623,1.00879,1.03369a8.68063,8.68063,0,0,0,2.19141,1.79883,4.0588,4.0588,0,0,1,3.05175,3.62011,2.3593,2.3593,0,0,0,.23047.84424,5.1343,5.1343,0,0,1,.24024.77149,29.21822,29.21822,0,0,1,1.18164,10.92529,80.33149,80.33149,0,0,1-.51172,17.96q-.22559,1.5879-.51758,3.16211a22.16531,22.16531,0,0,1-1.39941,5.20313,9.38491,9.38491,0,0,1-3.05762,4.07226,7.52322,7.52322,0,0,1-3.69531,1.17969,24.80848,24.80848,0,0,1-4.07129-.12793Q193.96387,80.75377,193.20117,80.7152Zm-4.58008-27.92188.13672.02051a7.74378,7.74378,0,0,0,2.4668-1.62012,14.80006,14.80006,0,0,0,2.15625-2.40283,15.56951,15.56951,0,0,0,1.26562-2.02.66619.66619,0,0,1,.1084-.2793,20.085,20.085,0,0,0,2.02637-5.43994l.041-.28857a7.28491,7.28491,0,0,0-.29395-3.35645,7.29209,7.29209,0,0,0-.499-.9209,1.35735,1.35735,0,0,0-.75489-.59131l-.27343-.04052a2.05089,2.05089,0,0,0-.99317.10937,3.4613,3.4613,0,0,0-.98828.55274,13.02405,13.02405,0,0,0-3.291,5.47314c-.07227.18555-.14258.34668-.207.48389a17.02886,17.02886,0,0,0-.70214,2.98779,35.92046,35.92046,0,0,0-.3545,5.46826,4.132,4.132,0,0,0,.1045.752A2.88443,2.88443,0,0,1,188.62109,52.79332Z" transform="translate(-5.42773 -7.75914)"/></g><g class="cls-1"><path class="cls-2" d="M228.251,75.49156a19.02439,19.02439,0,0,1-9.292-5.32226A16.73168,16.73168,0,0,1,214.15625,59.141a22.2669,22.2669,0,0,1,.48926-6.876,20.8156,20.8156,0,0,1,10.1748-13.43652,19.91027,19.91027,0,0,1,12.61328-2.669l1.251.44483q5.84033,1.82739,8.63379,5.09228.52294.79248,1.06641,1.5166,3.33105,3.68921,2.59863,6.78809l-.084.35254a10.27868,10.27868,0,0,1-3.81933,4.08008q-.99609.583-5.3086,2.5371a56.17361,56.17361,0,0,1-19.10058-.35253l.251-1.05664a11.02521,11.02521,0,0,0-.10743,4.51171,8.66886,8.66886,0,0,0,1.73047,3.9795,10.12615,10.12615,0,0,0,5.7461,3.73925q.3369.07911,2.63281.47461a19.002,19.002,0,0,0,6.24219-.30859,26.28125,26.28125,0,0,1,5.19336-1.15234l2.1582-.38184a3.78272,3.78272,0,0,1,2.16015-.084,3.30672,3.30672,0,0,1,2.38282,1.97753,2.34515,2.34515,0,0,1,.05468,1.27735,4.20733,4.20733,0,0,1-1.02539,1.61719,30.399,30.399,0,0,0-3.80859,1.62793,19.79968,19.79968,0,0,1-5.08984,1.91894A22.6066,22.6066,0,0,1,228.251,75.49156Zm-2.76172-25.645a30.97269,30.97269,0,0,0,8.99414.56592,14.27924,14.27924,0,0,0,4.61133-.9541q1.71093-.74853,1.86132-1.38184a.39241.39241,0,0,0-.13574-.33007,15.10515,15.10515,0,0,0-1.99609-1.81153,11.62885,11.62885,0,0,0-3.5293-1.35547,7.01517,7.01517,0,0,0-6.61914,1.44629q-2.68652,1.708-2.95508,2.53711A2.09437,2.09437,0,0,1,224.999,49.805l-.58886.38135Q224.54345,49.62316,225.48926,49.84654ZM238.83008,34.4818a2.63978,2.63978,0,0,1-2.07129-1.94043,5.231,5.231,0,0,1-.2002-2.61328q.55078-2.32472,7.53028-4.68995,6.085-1.908,7.167-1.65185,1.6875.3999,2.38574,2.87109a4.49374,4.49374,0,0,1,.07324,2.09961,4.79119,4.79119,0,0,1-2.8955,3.18262,11.15152,11.15152,0,0,1-3.81153,1.03271,11.17874,11.17874,0,0,0-3.32031.77637Q240.31543,34.8341,238.83008,34.4818Z" transform="translate(-5.42773 -7.75914)"/></g><path class="cls-3" d="M82,60.6h0c-.1-.4-.2-.7-.3-1.1-.6-1.7-1.2-3.4-1.7-5.1a1.18328,1.18328,0,0,1,.1-1A25.18474,25.18474,0,0,0,81.6,50a16.86937,16.86937,0,0,0,.8-5A15.50523,15.50523,0,0,0,81,38.3a17.96325,17.96325,0,0,0-5.1-6.8,16.46119,16.46119,0,0,0-5-2.8,19.21639,19.21639,0,0,0-5.8-1.1A17.80039,17.80039,0,0,0,52,32.9a16.66513,16.66513,0,0,0-4.4,8,15.66529,15.66529,0,0,0-.5,3,15.8732,15.8732,0,0,0,1,6.8,17.67061,17.67061,0,0,0,5.5,7.7A16.99006,16.99006,0,0,0,58.1,61,17.99885,17.99885,0,0,0,67,62.1a16.464,16.464,0,0,0,5.6-1.7,24.6309,24.6309,0,0,0,2.7-1.7.90037.90037,0,0,1,1-.1l3.2,1.1Z" transform="translate(-5.42773 -7.75914)"/><path d="M65,38.1a6.89994,6.89994,0,0,1,1.6-1.8,6.61532,6.61532,0,0,1,7.9.5,6.4313,6.4313,0,0,1,2.3,3.3,6.64251,6.64251,0,0,1-.3,4.4,14.95877,14.95877,0,0,1-3.3,4.6,71.3883,71.3883,0,0,0-5.4,5.6c-.5.6-1.1,1.2-1.6,1.8a.62316.62316,0,0,1-1,.2h-.1l-.2-.2L63.4,55c-1.5-1.4-3-2.8-4.6-4.2-.8-.8-1.8-1.7-2.7-2.5a14.996,14.996,0,0,1-1.9-2.5,6.0477,6.0477,0,0,1,.3-7.4,6.54834,6.54834,0,0,1,5.9-2.8,5.262,5.262,0,0,1,4.3,2.2Zm.6,17a.34918.34918,0,0,1,.1-.2c.7-.8,1.3-1.5,2-2.2,1.4-1.4,2.9-2.9,4.3-4.4a14.5984,14.5984,0,0,0,2.6-3.4,5.61436,5.61436,0,0,0,.9-3.1,5.43463,5.43463,0,0,0-4.2-4.9,4.51257,4.51257,0,0,0-5,2l-.6,1.2a.752.752,0,0,1-.7.5.85785.85785,0,0,1-.7-.6A4.41337,4.41337,0,0,0,59,37.2a5.35727,5.35727,0,0,0-4.2,4.1,5.41765,5.41765,0,0,0,1,4.4,23.52,23.52,0,0,0,3,3.3c1.6,1.3,3.1,2.7,4.6,4.1A10.23124,10.23124,0,0,1,65.6,55.1Z" transform="translate(-5.42773 -7.75914)"/><path class="cls-4" d="M65.6,55.3c-.8-.8-1.4-1.5-2.2-2.2-1.5-1.3-3-2.7-4.6-4.1a13.96385,13.96385,0,0,1-3.1-3.3,5.62528,5.62528,0,0,1-1-4.4,5.22747,5.22747,0,0,1,4.2-4.1,4.44794,4.44794,0,0,1,5.3,2.7.74.74,0,0,0,1.4,0l.6-1.2a4.65444,4.65444,0,0,1,5.1-2,5.43455,5.43455,0,0,1,4.3,5,6.20362,6.20362,0,0,1-.9,3.2,17.0397,17.0397,0,0,1-2.6,3.4c-1.5,1.5-2.9,2.9-4.3,4.4-.7.7-1.4,1.5-2,2.2C65.7,55.1,65.6,55.2,65.6,55.3ZM59.8,39.8h.4a.73044.73044,0,0,0,.6-.7.74875.74875,0,0,0-.6-.7h-.1a6.14959,6.14959,0,0,0-1.4.1,3.25473,3.25473,0,0,0-2.6,3.4.68354.68354,0,0,0,.7.7.73045.73045,0,0,0,.7-.6,1.2683,1.2683,0,0,1,.1-.6C57.7,40.3,58.6,39.9,59.8,39.8Z" transform="translate(-5.42773 -7.75914)"/><path class="cls-5" d="M59.8,39.8c-1.2.1-2,.5-2.3,1.6a1.26834,1.26834,0,0,1-.1.6.76042.76042,0,0,1-.8.6.74874.74874,0,0,1-.6-.7,3.25473,3.25473,0,0,1,2.6-3.4,7.08417,7.08417,0,0,1,1.4-.1.66114.66114,0,0,1,.7.6h0c0,.4-.2.7-.6.7C60.1,39.8,60,39.8,59.8,39.8Z" transform="translate(-5.42773 -7.75914)"/></g></svg>