<svg xmlns="http://www.w3.org/2000/svg" width="22.76" height="22.765" viewBox="0 0 22.76 22.765">
  <g id="pictures" transform="translate(-3.375 -3.375)">
    <path id="Tracé_89" data-name="Tracé 89" d="M22.633,24.8V10.211A2.342,2.342,0,0,0,20.3,7.875H5.711a2.342,2.342,0,0,0-2.336,2.336V24.8a2.342,2.342,0,0,0,2.336,2.336H20.3A2.349,2.349,0,0,0,22.633,24.8ZM9.355,18.38l2.478,3.5,3.649-5.252,4.815,7H5.711Z" transform="translate(0 -0.998)" fill="#fff"/>
    <path id="Tracé_90" data-name="Tracé 90" d="M24.8,3.375H10.211A2.342,2.342,0,0,0,7.875,5.711V6h14.3a2.342,2.342,0,0,1,2.336,2.336v14.3h.29A2.342,2.342,0,0,0,27.133,20.3V5.711A2.342,2.342,0,0,0,24.8,3.375Z" transform="translate(-0.998)" fill="#fff"/>
  </g>
</svg>
